<svg width="500" height="500" viewBox="0 -61 500 500" fill="none" xmlns="http://www.w3.org/2000/svg">

  <!-- Right foot -->
  <path fill="currentColor" d="M332.008 334.627V317.345H274.928L274.404 360.287C274.404 370.236 277.546 377.306 289.329 377.306H343.529C354.526 377.306 360.286 372.331 360.548 363.429V348.504C360.286 339.601 355.835 334.868 346.409 334.627C336.983 334.385 332.008 334.627 332.008 334.627Z"/>
  <path fill="currentColor" d="M274.928 278.594L332.008 284.964V317.345H274.928V278.594Z"/>

  <!-- Left foot -->
  <path fill="currentColor" d="M147.621 332.641L149.77 315.774L207.374 318.393L204.089 360.712C203.668 370.653 200.23 377.584 188.458 377.086L134.307 374.795C123.319 374.33 117.774 369.116 117.889 360.211L118.52 345.299C119.158 336.416 123.805 331.875 133.233 332.032C142.661 332.189 147.621 332.641 147.621 332.641Z"/>
  <path fill="currentColor" d="M211.04 269.953L156.054 265.24L149.77 315.774L207.374 318.393L211.04 269.953Z"/>

  <!-- Crown / hair -->
  <path fill="currentColor" d="M244.074 11.1107C235.237 21.3958 198.995 70.2806 198.995 70.2806L332.476 81.9226L343.895 62.4566C351.036 50.0189 342.101 37.3099 328.506 44.933L302.647 57.5829L311.29 37.3263C318.381 21.2257 303.643 11.9808 293.879 19.748L258.577 46.9726L264.735 21.5913C267.499 8.85618 252.91 0.825666 244.074 11.1107Z"/>

  <!-- Left ear -->
  <path fill="currentColor" d="M67.6064 173.332L111.542 155.007L105.782 209.207C105.782 209.207 86.9489 217.534 78.1991 220.358C69.4493 223.182 65.3106 221.72 56.2196 219.553L56.2183 219.553C47.1265 217.386 26.3484 212.433 15.7262 209.162C5.10354 205.891 1.3415 201.299 1.2972 188.197C1.25291 175.095 2.84823 157.907 3.38215 145.565C3.91607 133.224 9.66262 124.31 26.0802 126.746C42.4978 129.181 39.6482 128.29 48.2255 130.177C56.8029 132.063 62.3486 138.03 61.7325 147.702C61.1163 157.374 59.0482 170.923 59.0482 170.923C59.262 172.24 65.7556 173.788 67.6064 173.332Z"/>

  <!-- Right ear -->
  <path fill="currentColor" d="M434.124 181.452L400.347 167.575L396.42 216.538C396.42 216.538 413.177 224.917 421.818 228.059C430.459 231.201 434.648 229.892 443.812 228.059L443.814 228.059C452.979 226.226 473.924 222.037 484.659 219.157C495.394 216.277 499.322 211.825 499.845 198.734C500.369 185.642 499.403 168.407 499.322 156.054C499.24 143.701 493.823 134.584 477.327 136.417C460.832 138.249 463.712 137.464 455.071 139.035C446.431 140.606 440.67 146.366 440.932 156.054C441.194 165.742 442.765 179.358 442.765 179.358C442.503 180.667 435.957 181.976 434.124 181.452Z"/>

  <!-- Face body + eye holes + smile hole (evenodd cuts inner shapes out) -->
  <path fill-rule="evenodd" clip-rule="evenodd" fill="currentColor" d="
    M117.917 88.0552C116.87 102.98 101.421 237.564 101.421 237.564C101.421 237.564 99.3266 247.252 105.349 254.059C111.371 260.867 117.655 261.914 117.655 261.914C117.655 261.914 359.33 289.284 370.851 289.931C382.371 290.578 392.583 281.29 393.369 266.889C394.154 252.488 405.161 123.572 406.984 107.955C408.807 92.3377 401.486 84.1277 387.085 82.033C372.683 79.9382 279.994 67.6566 262.974 66.061C245.955 64.4654 161.473 58.0223 143.839 60.3006C126.205 62.5788 118.965 73.1305 117.917 88.0552Z
    M170.348 113.122C170.882 105.911 177.16 100.499 184.371 101.033L198.26 102.062C205.47 102.596 210.883 108.875 210.349 116.085L205.35 183.567C204.816 190.778 198.537 196.19 191.327 195.656L177.438 194.627C170.227 194.093 164.815 187.815 165.349 180.604L170.348 113.122Z
    M314.565 121.935C315.008 114.718 321.218 109.226 328.434 109.669L342.335 110.522C349.552 110.965 355.044 117.174 354.601 124.391L350.457 191.931C350.014 199.148 343.804 204.639 336.588 204.197L322.687 203.344C315.47 202.901 309.978 196.691 310.421 189.475L314.565 121.935Z
    M229.62 197.191C230.208 200.635 232.595 204.707 236.441 206.24L252.623 212.158C256.245 213.271 258.851 213.304 262.571 212.47C269.307 209.969 272.534 208.768 279.2 206.086C283.518 203.975 285.855 200.438 286.279 197.053C286.766 193.163 286.767 193.144 287.014 188.848L287.038 188.442C287.128 186.873 286.889 185.459 285.987 183.922C284.077 180.665 282.041 179.094 276.527 179.704C263.629 181.862 256.859 182.95 243.439 180.417C239.924 179.862 236.412 179.487 233.984 180.658C231.817 181.844 230.696 183.091 229.821 184.614C228.942 186.146 228.447 188.12 228.444 190.304C228.728 193.752 229.053 194.396 229.62 197.191Z
  "/>

  <!-- Left eye highlight -->
  <path fill="currentColor" d="M177.408 115.758C177.575 112.871 180.051 110.665 182.938 110.832L191.825 111.345C194.713 111.511 196.918 113.987 196.752 116.875L196.269 125.239C196.102 128.127 193.626 130.332 190.739 130.166L181.851 129.653C178.964 129.486 176.758 127.01 176.925 124.123L177.408 115.758Z"/>

  <!-- Right eye highlight -->
  <path fill="currentColor" d="M321.659 124.481C321.789 121.592 324.236 119.355 327.126 119.485L336.019 119.886C338.908 120.016 341.145 122.463 341.015 125.353L340.638 133.723C340.508 136.612 338.06 138.849 335.171 138.719L326.277 138.318C323.388 138.188 321.151 135.74 321.282 132.851L321.659 124.481Z"/>

</svg>
